<svg width="517" height="110" viewBox="0 0 517 110" fill="none" xmlns="http://www.w3.org/2000/svg">
<g clip-path="url(#clip0_2_200)">
<path d="M102.554 33.7112V91.0179C102.554 97.0817 97.6354 102 91.5611 102H13.9927C7.92882 102 3 97.0817 3 91.0179V33.7112H102.554Z" fill="#E4E3FF"/>
<path d="M92.976 85.6725C92.976 88.3449 90.8096 90.5113 88.1373 90.5113H17.4193C14.7469 90.5113 12.5805 88.3449 12.5805 85.6725V48.4986C12.5805 45.8262 14.7469 43.6598 17.4193 43.6598H88.1373C90.8097 43.6598 92.976 45.8262 92.976 48.4986V85.6725Z" fill="white"/>
<path d="M43.4061 79.8529C43.0038 79.8529 42.62 79.6204 42.4455 79.2294L33.3239 58.7693C33.0868 58.2392 33.3259 57.6178 33.8555 57.3812C34.3881 57.1452 35.007 57.3838 35.243 57.9134L44.3647 78.3735C44.6017 78.9036 44.3626 79.525 43.8331 79.7616C43.6935 79.8231 43.5488 79.8529 43.4061 79.8529Z" fill="#474646"/>
<path d="M24.7436 66.3651C24.2262 66.5701 23.6514 66.2803 23.4887 65.748C21.575 59.4863 24.7645 52.701 30.9506 50.2501C37.1442 47.7963 44.1157 50.556 47.0098 56.4293C47.2558 56.9285 47.0354 57.5334 46.518 57.7384L24.7436 66.3651Z" fill="#7979F7"/>
<path d="M46.5187 57.7352L24.7435 66.3633C24.2286 66.5735 23.6506 66.2792 23.4929 65.7432C23.3774 65.3754 23.2827 64.9971 23.2092 64.6293L40.3031 57.8476C42.478 56.9848 43.1022 54.2189 41.5256 52.4902C40.5344 51.4034 39.1722 50.2974 37.3126 49.475C41.3902 50.0215 45.0893 52.5437 47.0126 56.4321C47.2542 56.9261 47.0336 57.5356 46.5187 57.7352Z" fill="#5E5EEF"/>
<path d="M31.4564 63.7056C28.8741 57.1878 28.65 51.1616 30.9531 50.2491C33.2591 49.3355 37.2229 53.8801 39.8052 60.3979L31.4564 63.7056Z" fill="#F9B938"/>
<path d="M39.8033 60.3941L31.459 63.7045C31.1857 63.0214 30.944 62.3488 30.7338 61.6867L33.8983 60.429C35.8342 59.6596 36.6366 57.375 35.6544 55.5379C34.4037 53.1984 33.0159 51.3161 31.7112 50.1476C34.0547 50.2947 37.4807 54.5404 39.8033 60.3941Z" fill="#ECB021"/>
<path d="M102.554 25.5981V33.7112H3V25.5981C3 19.5237 7.92882 14.6054 13.9927 14.6054H91.5611C97.6354 14.6054 102.554 19.5237 102.554 25.5981Z" fill="#FC6559"/>
<path d="M102.554 25.5981V33.7112H3V29.518H92.3342C95.2156 29.518 97.5514 27.1822 97.5514 24.3008V21.4049C97.5514 19.2085 96.9103 17.1697 95.8068 15.4567C99.7688 17.1172 102.554 21.0266 102.554 25.5981Z" fill="#F05543"/>
<path d="M102.554 33.7112V91.0179C102.554 97.0817 97.6354 102 91.5611 102H13.9927C9.43165 102 5.51173 99.2151 3.85126 95.2636C5.42764 96.1464 7.25623 96.6508 9.20048 96.6508H86.7689C92.8432 96.6508 97.7615 91.7325 97.7615 85.6687V33.7112H102.554Z" fill="#D0D0F7"/>
<path d="M53.3391 81.5806C49.5348 83.8821 46.2559 86.9193 43.6706 90.5134H17.4186C14.7493 90.5134 12.5844 88.3485 12.5844 85.6687V83.0834C18.5221 78.5225 25.9521 75.8111 34.0126 75.8111C41.1484 75.8111 47.7902 77.9339 53.3391 81.5806Z" fill="#F7C9A9"/>
<path d="M53.3392 81.5806C49.5348 83.8821 46.256 86.9193 43.6707 90.5134H17.4187C14.928 90.5134 12.8682 88.6218 12.6055 86.1836C13.3937 86.7512 14.3605 87.0875 15.4114 87.0875H40.3801C41.188 87.0875 41.936 86.6974 42.433 86.0604C44.4353 83.4941 46.8057 81.2421 49.4718 79.3842C50.8064 80.0253 52.0991 80.7609 53.3392 81.5806Z" fill="#F0B68E"/>
<path d="M92.9693 85.9735C92.8117 88.5167 90.6994 90.5134 88.1351 90.5134H43.6707C46.2559 86.9193 49.5348 83.8821 53.3391 81.5806C58.2784 78.575 64.09 76.8515 70.2905 76.8515C79.0972 76.8515 87.0842 80.33 92.9693 85.9735Z" fill="#F7C9A9"/>
<path d="M92.9693 85.9735C92.8117 88.5167 90.6994 90.5134 88.1351 90.5134H43.6707C44.5009 89.3575 45.3942 88.2645 46.382 87.2346H85.5919C87.8198 87.2346 89.7115 85.7318 90.2684 83.6615C91.2143 84.3761 92.1181 85.1538 92.9693 85.9735Z" fill="#F0B68E"/>
<path d="M32.1744 8.21001V20.1637C32.1744 22.7564 30.0726 24.8581 27.48 24.8581C24.8873 24.8581 22.7855 22.7564 22.7855 20.1637V8.21001C22.7855 5.61734 24.8873 3.51556 27.48 3.51556C30.0726 3.51555 32.1744 5.61733 32.1744 8.21001Z" fill="#474646"/>
<path d="M82.7711 8.21001V20.1637C82.7711 22.7564 80.6693 24.8581 78.0767 24.8581C75.484 24.8581 73.3822 22.7564 73.3822 20.1637V8.21001C73.3822 5.61734 75.484 3.51556 78.0766 3.51556C80.6693 3.51555 82.7711 5.61733 82.7711 8.21001Z" fill="#474646"/>
<path d="M32.1736 8.20529V20.1648C32.1736 22.7606 30.0717 24.8624 27.4759 24.8624C26.1833 24.8624 25.0168 24.337 24.1656 23.4857C23.6821 23.0023 23.3038 22.4138 23.0726 21.7517C23.5035 21.8883 23.9659 21.9619 24.4493 21.9619C27.0451 21.9619 29.1469 19.86 29.1469 17.2643V5.30481C29.1469 4.74778 29.0523 4.22232 28.8737 3.72842C29.6093 3.9596 30.2609 4.35895 30.7969 4.89493C31.6481 5.74618 32.1736 6.91268 32.1736 8.20529Z" fill="#2D2C2C"/>
<path d="M82.7755 8.20529V20.1648C82.7755 22.7606 80.6736 24.8624 78.0778 24.8624C76.7852 24.8624 75.6082 24.337 74.757 23.4857C74.2735 23.0023 73.8952 22.4138 73.6639 21.7517C74.1054 21.8883 74.5677 21.9619 75.0512 21.9619C77.647 21.9619 79.7488 19.86 79.7488 17.2643V5.30481C79.7488 4.74778 79.6542 4.22232 79.4756 3.72842C80.2112 3.9596 80.8628 4.35895 81.3987 4.89493C82.25 5.74618 82.7755 6.91268 82.7755 8.20529Z" fill="#2D2C2C"/>
<path d="M73.5711 60.5202C73.5711 64.0033 70.7487 66.8257 67.2656 66.8257C63.7824 66.8257 60.9519 64.0033 60.9519 60.5202C60.9519 57.037 63.7824 54.2146 67.2656 54.2146C70.7487 54.2146 73.5711 57.037 73.5711 60.5202Z" fill="#FC6559"/>
<path d="M73.5692 60.5202C73.5692 64.0013 70.7453 66.8252 67.2642 66.8252C65.1219 66.8252 63.2353 65.7663 62.0911 64.1231C62.8701 64.4761 63.7343 64.6708 64.6472 64.6708C68.1283 64.6708 70.9522 61.847 70.9522 58.3658C70.9522 57.0269 70.5384 55.7853 69.8202 54.7629C72.0355 55.7367 73.5692 57.9519 73.5692 60.5202Z" fill="#E24B40"/>
<path d="M67.2613 52.2144C66.6804 52.2144 66.2104 51.7439 66.2104 51.1635V49.2074C66.2104 48.627 66.6804 48.1565 67.2613 48.1565C67.8422 48.1565 68.3122 48.627 68.3122 49.2074V51.1635C68.3122 51.7439 67.8422 52.2144 67.2613 52.2144Z" fill="#474646"/>
<path d="M60.6458 54.9551C60.3769 54.9551 60.108 54.8525 59.9028 54.6472L58.5193 53.2638C58.1088 52.8533 58.1088 52.1882 58.5193 51.7777C58.9298 51.3672 59.5949 51.3672 60.0054 51.7777L61.3888 53.1612C61.7993 53.5717 61.7993 54.2367 61.3888 54.6472C61.1836 54.8525 60.9147 54.9551 60.6458 54.9551Z" fill="#474646"/>
<path d="M57.9046 61.5711H55.9484C55.3676 61.5711 54.8975 61.1006 54.8975 60.5202C54.8975 59.9398 55.3676 59.4693 55.9484 59.4693H57.9046C58.4854 59.4693 58.9555 59.9398 58.9555 60.5202C58.9555 61.1006 58.4854 61.5711 57.9046 61.5711Z" fill="#474646"/>
<path d="M59.2623 69.5705C58.9935 69.5705 58.7246 69.4679 58.5193 69.2626C58.1088 68.8521 58.1088 68.1871 58.5193 67.7766L59.9028 66.3932C60.3133 65.9826 60.9783 65.9826 61.3888 66.3932C61.7993 66.8037 61.7993 67.4687 61.3888 67.8792L60.0054 69.2626C59.8001 69.4679 59.5312 69.5705 59.2623 69.5705Z" fill="#474646"/>
<path d="M67.2613 72.8839C66.6804 72.8839 66.2104 72.4133 66.2104 71.833V69.8769C66.2104 69.2965 66.6804 68.826 67.2613 68.826C67.8422 68.826 68.3122 69.2965 68.3122 69.8769V71.833C68.3122 72.4133 67.8422 72.8839 67.2613 72.8839Z" fill="#474646"/>
<path d="M75.2612 69.5705C74.9923 69.5705 74.7234 69.4679 74.5181 69.2626L73.1347 67.8792C72.7242 67.4687 72.7242 66.8037 73.1347 66.3932C73.5452 65.9826 74.2102 65.9826 74.6207 66.3932L76.0042 67.7766C76.4147 68.1871 76.4147 68.8521 76.0042 69.2626C75.7989 69.4679 75.53 69.5705 75.2612 69.5705Z" fill="#474646"/>
<path d="M78.574 61.5711H76.6179C76.037 61.5711 75.567 61.1006 75.567 60.5202C75.567 59.9398 76.037 59.4693 76.6179 59.4693H78.574C79.1549 59.4693 79.6249 59.9398 79.6249 60.5202C79.625 61.1006 79.1549 61.5711 78.574 61.5711Z" fill="#474646"/>
<path d="M73.8777 54.9551C73.6088 54.9551 73.3399 54.8525 73.1347 54.6472C72.7242 54.2367 72.7242 53.5717 73.1347 53.1612L74.5181 51.7777C74.9286 51.3672 75.5937 51.3672 76.0042 51.7777C76.4147 52.1882 76.4147 52.8533 76.0042 53.2638L74.6207 54.6472C74.4155 54.8525 74.1466 54.9551 73.8777 54.9551Z" fill="#474646"/>
<path d="M51.5579 20.2756H43.362C42.7888 20.2756 42.325 19.8112 42.325 19.2386C42.325 18.6659 42.7888 18.2015 43.362 18.2015H51.5579C52.1311 18.2015 52.5949 18.6659 52.5949 19.2386C52.5949 19.8112 52.1311 20.2756 51.5579 20.2756Z" fill="#FF8D8D"/>
<path d="M57.6423 20.2756H56.3035C55.7303 20.2756 55.2665 19.8112 55.2665 19.2386C55.2665 18.6659 55.7303 18.2015 56.3035 18.2015H57.6423C58.2155 18.2015 58.6793 18.6659 58.6793 19.2386C58.6793 19.8112 58.2155 20.2756 57.6423 20.2756Z" fill="#FF8D8D"/>
</g>
<path d="M497.665 30.9835H504.615V35.3848H504.73C505.503 33.7633 506.603 32.5085 508.031 31.6205C509.46 30.7326 511.101 30.2886 512.954 30.2886C513.379 30.2886 513.784 30.3272 514.17 30.4044C514.595 30.4816 515.019 30.5781 515.444 30.694V37.4117C514.865 37.2572 514.286 37.1414 513.707 37.0642C513.166 36.9484 512.626 36.8905 512.085 36.8905C510.464 36.8905 509.151 37.1993 508.147 37.817C507.182 38.3962 506.429 39.0718 505.889 39.8439C505.387 40.6161 505.039 41.3882 504.846 42.1604C504.692 42.9325 504.615 43.5117 504.615 43.8977V58.7809H497.665V30.9835Z" fill="white"/>
<path d="M469.971 47.3145C470.203 49.3993 471.014 51.0208 472.403 52.179C473.793 53.3373 475.473 53.9164 477.442 53.9164C479.179 53.9164 480.627 53.5689 481.785 52.874C482.982 52.1404 484.024 51.2332 484.912 50.1522L489.893 53.9164C488.271 55.924 486.457 57.3525 484.449 58.2018C482.441 59.0512 480.337 59.4759 478.137 59.4759C476.052 59.4759 474.083 59.1284 472.23 58.4335C470.376 57.7385 468.774 56.754 467.423 55.48C466.072 54.2059 464.991 52.6809 464.18 50.905C463.408 49.0904 463.022 47.0829 463.022 44.8822C463.022 42.6816 463.408 40.6933 464.18 38.9174C464.991 37.1028 466.072 35.5585 467.423 34.2845C468.774 33.0104 470.376 32.0259 472.23 31.331C474.083 30.636 476.052 30.2886 478.137 30.2886C480.067 30.2886 481.824 30.636 483.407 31.331C485.028 31.9873 486.399 32.9525 487.518 34.2265C488.676 35.5006 489.564 37.0835 490.182 38.9753C490.838 40.8284 491.167 42.9712 491.167 45.4034V47.3145H469.971ZM484.217 42.1025C484.179 40.0563 483.542 38.4541 482.306 37.2958C481.071 36.099 479.353 35.5006 477.152 35.5006C475.067 35.5006 473.407 36.099 472.172 37.2958C470.975 38.4927 470.241 40.0949 469.971 42.1025H484.217Z" fill="white"/>
<path d="M431.158 30.9835H437.76V35.4427H437.875C438.532 34.0528 439.536 32.856 440.887 31.8522C442.238 30.8098 444.072 30.2886 446.388 30.2886C448.242 30.2886 449.805 30.5974 451.079 31.2152C452.392 31.8329 453.454 32.6436 454.264 33.6474C455.075 34.6512 455.654 35.8095 456.002 37.1221C456.349 38.4348 456.523 39.8053 456.523 41.2338V58.7809H449.574V44.7085C449.574 43.9363 449.535 43.087 449.458 42.1604C449.38 41.1952 449.168 40.3072 448.821 39.4965C448.512 38.6471 448.01 37.9522 447.315 37.4117C446.62 36.8326 445.674 36.543 444.477 36.543C443.319 36.543 442.335 36.736 441.524 37.1221C440.752 37.5082 440.095 38.0294 439.555 38.6857C439.053 39.342 438.686 40.0949 438.455 40.9443C438.223 41.7936 438.107 42.6816 438.107 43.6082V58.7809H431.158V30.9835Z" fill="white"/>
<path d="M397.904 30.9835H404.506V35.4427H404.622C405.278 34.0528 406.282 32.856 407.633 31.8522C408.984 30.8098 410.818 30.2886 413.135 30.2886C414.988 30.2886 416.551 30.5974 417.825 31.2152C419.138 31.8329 420.2 32.6436 421.011 33.6474C421.821 34.6512 422.4 35.8095 422.748 37.1221C423.095 38.4348 423.269 39.8053 423.269 41.2338V58.7809H416.32V44.7085C416.32 43.9363 416.281 43.087 416.204 42.1604C416.127 41.1952 415.914 40.3072 415.567 39.4965C415.258 38.6471 414.756 37.9522 414.061 37.4117C413.366 36.8326 412.42 36.543 411.224 36.543C410.065 36.543 409.081 36.736 408.27 37.1221C407.498 37.5082 406.842 38.0294 406.301 38.6857C405.799 39.342 405.432 40.0949 405.201 40.9443C404.969 41.7936 404.853 42.6816 404.853 43.6082V58.7809H397.904V30.9835Z" fill="white"/>
<path d="M384.173 54.9588H383.999C382.995 56.5417 381.721 57.6999 380.177 58.4335C378.632 59.1284 376.934 59.4759 375.081 59.4759C373.807 59.4759 372.552 59.3021 371.316 58.9547C370.12 58.6072 369.039 58.086 368.073 57.3911C367.147 56.6961 366.394 55.8275 365.815 54.7851C365.236 53.7427 364.946 52.5265 364.946 51.1366C364.946 49.631 365.216 48.3569 365.757 47.3145C366.297 46.2335 367.012 45.3455 367.9 44.6506C368.826 43.917 369.888 43.3379 371.085 42.9132C372.282 42.4886 373.517 42.1797 374.791 41.9867C376.104 41.755 377.416 41.6199 378.729 41.5813C380.042 41.5041 381.277 41.4655 382.435 41.4655H384.173V40.7126C384.173 38.9753 383.574 37.6819 382.377 36.8326C381.181 35.9446 379.656 35.5006 377.802 35.5006C376.335 35.5006 374.965 35.7708 373.691 36.3113C372.417 36.8132 371.316 37.5082 370.39 38.3962L366.741 34.7477C368.286 33.1648 370.081 32.0259 372.127 31.331C374.212 30.636 376.355 30.2886 378.555 30.2886C380.524 30.2886 382.184 30.5202 383.536 30.9835C384.887 31.4082 386.007 31.968 386.894 32.6629C387.782 33.3579 388.458 34.1686 388.921 35.0952C389.423 35.9832 389.771 36.8905 389.964 37.817C390.195 38.7436 390.331 39.6509 390.369 40.5389C390.408 41.3882 390.427 42.1411 390.427 42.7974V58.7809H384.173V54.9588ZM383.767 46.33H382.319C381.354 46.33 380.273 46.3686 379.076 46.4458C377.88 46.523 376.741 46.7161 375.66 47.0249C374.617 47.2952 373.729 47.7199 372.996 48.299C372.262 48.8395 371.895 49.6116 371.895 50.6154C371.895 51.2718 372.031 51.8316 372.301 52.2949C372.61 52.7196 372.996 53.0863 373.459 53.3952C373.922 53.704 374.444 53.9357 375.023 54.0901C375.602 54.2059 376.181 54.2639 376.76 54.2639C379.154 54.2639 380.91 53.704 382.03 52.5844C383.188 51.4262 383.767 49.8626 383.767 47.8936V46.33Z" fill="white"/>
<path d="M351.872 15H358.821V58.7809H351.872V15Z" fill="white"/>
<path d="M316.99 17.7797H330.773C332.742 17.7797 334.634 17.9728 336.448 18.3588C338.302 18.7449 339.923 19.4012 341.313 20.3278C342.703 21.2158 343.803 22.4319 344.614 23.9762C345.463 25.4819 345.888 27.3737 345.888 29.6515C345.888 32.2382 345.444 34.3231 344.556 35.906C343.668 37.4889 342.471 38.7243 340.965 39.6123C339.46 40.4616 337.703 41.0408 335.696 41.3496C333.727 41.6585 331.661 41.8129 329.499 41.8129H324.287V58.7809H316.99V17.7797ZM328.688 35.5585C329.731 35.5585 330.812 35.5199 331.931 35.4427C333.051 35.3655 334.074 35.1338 335.001 34.7477C335.966 34.3617 336.738 33.7825 337.317 33.0104C337.935 32.2382 338.244 31.1572 338.244 29.7674C338.244 28.4933 337.973 27.4895 337.433 26.756C336.892 25.9838 336.197 25.4047 335.348 25.0186C334.499 24.594 333.553 24.3237 332.51 24.2079C331.468 24.0921 330.464 24.0341 329.499 24.0341H324.287V35.5585H328.688Z" fill="white"/>
<path d="M279.876 30.9835H286.478V35.1531H286.594C287.597 33.4544 288.949 32.2189 290.647 31.4468C292.346 30.6746 294.18 30.2886 296.149 30.2886C298.272 30.2886 300.183 30.6746 301.882 31.4468C303.581 32.1803 305.029 33.2034 306.226 34.5161C307.422 35.8288 308.33 37.3731 308.947 39.149C309.565 40.9249 309.874 42.836 309.874 44.8822C309.874 46.9284 309.546 48.8395 308.889 50.6154C308.233 52.3914 307.307 53.9357 306.11 55.2483C304.951 56.561 303.542 57.6034 301.882 58.3756C300.222 59.1091 298.407 59.4759 296.438 59.4759C295.126 59.4759 293.968 59.3407 292.964 59.0705C291.96 58.8002 291.072 58.4528 290.3 58.0281C289.528 57.6034 288.871 57.1594 288.331 56.6961C287.79 56.1942 287.346 55.7116 286.999 55.2483H286.825V71.9847H279.876V30.9835ZM302.925 44.8822C302.925 43.8012 302.732 42.7588 302.345 41.755C301.998 40.7512 301.457 39.8632 300.724 39.0911C300.029 38.3189 299.18 37.7012 298.176 37.2379C297.172 36.7746 296.033 36.543 294.759 36.543C293.485 36.543 292.346 36.7746 291.342 37.2379C290.338 37.7012 289.47 38.3189 288.736 39.0911C288.041 39.8632 287.501 40.7512 287.115 41.755C286.767 42.7588 286.594 43.8012 286.594 44.8822C286.594 45.9632 286.767 47.0056 287.115 48.0094C287.501 49.0132 288.041 49.9012 288.736 50.6734C289.47 51.4455 290.338 52.0632 291.342 52.5265C292.346 52.9898 293.485 53.2215 294.759 53.2215C296.033 53.2215 297.172 52.9898 298.176 52.5265C299.18 52.0632 300.029 51.4455 300.724 50.6734C301.457 49.9012 301.998 49.0132 302.345 48.0094C302.732 47.0056 302.925 45.9632 302.925 44.8822Z" fill="#F9B938"/>
<path d="M264.948 30.9835H271.898V58.7809H264.948V30.9835ZM263.964 21.544C263.964 20.4244 264.369 19.4592 265.18 18.6484C266.029 17.799 267.091 17.3744 268.365 17.3744C269.639 17.3744 270.701 17.7797 271.55 18.5905C272.438 19.3626 272.882 20.3471 272.882 21.544C272.882 22.7408 272.438 23.7446 271.55 24.5554C270.701 25.3275 269.639 25.7136 268.365 25.7136C267.091 25.7136 266.029 25.3082 265.18 24.4975C264.369 23.6481 263.964 22.6636 263.964 21.544Z" fill="#F9B938"/>
<path d="M242.324 30.9835H249.273V35.3848H249.389C250.161 33.7633 251.262 32.5085 252.69 31.6205C254.119 30.7326 255.759 30.2886 257.613 30.2886C258.037 30.2886 258.443 30.3272 258.829 30.4044C259.253 30.4816 259.678 30.5781 260.103 30.694V37.4117C259.524 37.2572 258.945 37.1414 258.365 37.0642C257.825 36.9484 257.284 36.8905 256.744 36.8905C255.122 36.8905 253.81 37.1993 252.806 37.817C251.841 38.3962 251.088 39.0718 250.547 39.8439C250.045 40.6161 249.698 41.3882 249.505 42.1604C249.351 42.9325 249.273 43.5117 249.273 43.8977V58.7809H242.324V30.9835Z" fill="#F9B938"/>
<path d="M223.42 24.3816H210.854V17.7797H243.284V24.3816H230.717V58.7809H223.42V24.3816Z" fill="#F9B938"/>
<path d="M180.592 30.9835H188.236L195.996 50.268H196.112L203.062 30.9835H210.3L197.155 64.7458C196.653 66.0585 196.093 67.1974 195.475 68.1626C194.896 69.1664 194.201 69.9964 193.39 70.6528C192.58 71.3477 191.614 71.8496 190.495 72.1585C189.414 72.5059 188.101 72.6797 186.557 72.6797C184.742 72.6797 182.966 72.448 181.229 71.9847L182.098 65.7303C182.638 65.9233 183.198 66.0778 183.777 66.1936C184.395 66.348 185.012 66.4252 185.63 66.4252C186.48 66.4252 187.194 66.348 187.773 66.1936C188.352 66.0392 188.835 65.7882 189.221 65.4407C189.645 65.1319 189.993 64.7072 190.263 64.1667C190.533 63.6648 190.823 63.0471 191.132 62.3135L192.464 59.0126L180.592 30.9835Z" fill="white"/>
<path d="M131.554 17.7797H142.673L153.618 46.5037L164.679 17.7797H175.682V58.7809H168.733V24.7291H168.617L156.166 58.7809H151.07L138.619 24.7291H138.503V58.7809H131.554V17.7797Z" fill="white"/>
<path d="M145.245 88.0242H148.454L151.712 96.1208H151.761L154.679 88.0242H157.718L152.198 102.199C151.988 102.75 151.753 103.229 151.493 103.634C151.25 104.055 150.958 104.404 150.618 104.679C150.278 104.971 149.872 105.182 149.402 105.312C148.948 105.457 148.397 105.53 147.749 105.53C146.987 105.53 146.242 105.433 145.512 105.239L145.877 102.613C146.104 102.694 146.339 102.759 146.582 102.807C146.841 102.872 147.101 102.904 147.36 102.904C147.717 102.904 148.016 102.872 148.26 102.807C148.503 102.742 148.705 102.637 148.867 102.491C149.046 102.361 149.192 102.183 149.305 101.956C149.419 101.746 149.54 101.486 149.67 101.178L150.229 99.7923L145.245 88.0242Z" fill="white"/>
<path d="M131.51 81.3135H134.428V89.5074H134.501C134.647 89.3129 134.833 89.1184 135.06 88.9239C135.287 88.7131 135.562 88.5186 135.887 88.3403C136.211 88.162 136.584 88.0161 137.005 87.9027C137.426 87.7892 137.913 87.7325 138.464 87.7325C139.291 87.7325 140.052 87.8946 140.749 88.2187C141.446 88.5267 142.038 88.9563 142.524 89.5074C143.027 90.0585 143.416 90.7069 143.691 91.4525C143.967 92.1982 144.105 93.0005 144.105 93.8596C144.105 94.7187 143.975 95.5211 143.716 96.2667C143.456 97.0124 143.075 97.6607 142.573 98.2119C142.07 98.763 141.463 99.2006 140.749 99.5248C140.036 99.8328 139.234 99.9868 138.342 99.9868C137.516 99.9868 136.746 99.8247 136.032 99.5005C135.319 99.1763 134.752 98.6576 134.33 97.9444H134.282V99.695H131.51V81.3135ZM141.187 93.8596C141.187 93.4058 141.106 92.9681 140.944 92.5467C140.798 92.1252 140.571 91.7524 140.263 91.4282C139.971 91.104 139.615 90.8447 139.193 90.6502C138.772 90.4556 138.294 90.3584 137.759 90.3584C137.224 90.3584 136.746 90.4556 136.324 90.6502C135.903 90.8447 135.538 91.104 135.23 91.4282C134.938 91.7524 134.711 92.1252 134.549 92.5467C134.403 92.9681 134.33 93.4058 134.33 93.8596C134.33 94.3135 134.403 94.7511 134.549 95.1726C134.711 95.594 134.938 95.9669 135.23 96.291C135.538 96.6152 135.903 96.8746 136.324 97.0691C136.746 97.2636 137.224 97.3609 137.759 97.3609C138.294 97.3609 138.772 97.2636 139.193 97.0691C139.615 96.8746 139.971 96.6152 140.263 96.291C140.571 95.9669 140.798 95.594 140.944 95.1726C141.106 94.7511 141.187 94.3135 141.187 93.8596Z" fill="white"/>
<path d="M181.672 77.1307C190.072 77.1307 196.908 83.966 196.908 92.3666C196.908 100.767 190.072 107.602 181.672 107.602C173.271 107.602 166.436 100.771 166.436 92.3666C166.436 83.9624 173.271 77.1307 181.672 77.1307ZM181.672 75.6947C172.464 75.6947 165 83.1583 165 92.3666C165 101.575 172.464 109.038 181.672 109.038C190.88 109.038 198.344 101.575 198.344 92.3666C198.344 83.1583 190.88 75.6947 181.672 75.6947Z" fill="white"/>
<g style="mix-blend-mode:overlay" opacity="0.1">
<path d="M192.072 95.9207L189.329 93.1241L191.128 89.6562L194.98 90.3095L195.565 94.1795L192.072 95.9207Z" fill="white"/>
</g>
<g style="mix-blend-mode:overlay" opacity="0.1">
<path d="M177.005 106.978L174.811 104.741L176.247 101.966L179.331 102.49L179.798 105.581L177.005 106.978Z" fill="white"/>
</g>
<g style="mix-blend-mode:overlay" opacity="0.1">
<path d="M170.13 96.3192L168.967 83.8189L180.459 78.8324L188.719 88.2525L182.34 99.0512L170.13 96.3192Z" fill="white"/>
</g>
<path d="M181.245 96.8361L179.536 94.3375H174.309L174.32 94.3519V99.7225H182.86H183.047L182.426 98.6957L181.245 96.8361Z" fill="white"/>
<path d="M187.617 85.0036L187.689 85.2333C187.771 85.4021 187.832 86.0806 187.832 86.7591C187.832 88.8879 187.186 90.5681 185.861 91.864C184.688 93.0092 183.259 93.4903 182.264 93.6806L182.114 93.7129L185.352 98.7748L185.908 99.7225H189.035V85.0036H187.613H187.617Z" fill="white"/>
<path d="M178.717 91.8246H179.442C179.608 91.8246 179.766 91.8318 179.92 91.8282C179.931 91.8282 179.941 91.8318 179.952 91.8318C180.875 91.7994 181.64 91.6882 182.275 91.5051C182.286 91.5051 182.296 91.5015 182.307 91.4979C182.397 91.4728 182.487 91.444 182.573 91.4153C182.62 91.3974 182.666 91.383 182.713 91.3651C182.756 91.3471 182.799 91.3327 182.842 91.3184C185.032 90.4496 185.387 88.6582 185.387 87.0391C185.387 86.576 185.362 85.3841 185.115 85.1185L185.082 85.0036H174.32V91.8246H178.717Z" fill="white"/>
<path d="M203.478 99.902V85.1148H208.748C210.381 85.1148 211.67 85.4667 212.618 86.1667C213.698 86.9745 214.233 88.1089 214.226 89.5736C214.226 90.4496 214.054 91.207 213.713 91.8461C213.372 92.4851 213.005 92.941 212.618 93.2138C212.23 93.4867 211.821 93.6949 211.39 93.8349L215.138 99.9056H211.113L208.005 94.2837H206.913V99.9056H203.481L203.478 99.902ZM206.888 91.6378H208.263C209.096 91.6378 209.692 91.5014 210.047 91.2322C210.55 90.8804 210.801 90.3849 210.798 89.7459C210.798 89.1069 210.543 88.6115 210.047 88.2597C209.703 88.0048 209.11 87.8755 208.263 87.8755H206.888V91.6378Z" fill="white"/>
<path d="M261.833 98.2938C260.375 96.9511 259.646 95.0987 259.646 92.74C259.646 90.3814 260.375 88.5039 261.833 87.1109C263.29 85.718 265.15 85.0216 267.412 85.0216C269.673 85.0216 271.533 85.718 272.994 87.1109C274.455 88.5039 275.187 90.3814 275.187 92.74C275.187 95.0987 274.455 96.9511 272.994 98.2938C271.533 99.64 269.67 100.311 267.412 100.311C265.153 100.311 263.294 99.64 261.833 98.2938ZM264.303 89.2649C263.484 90.1194 263.078 91.2502 263.078 92.6539C263.078 94.0576 263.488 95.192 264.303 96.0536C265.121 96.9152 266.159 97.346 267.415 97.346C268.672 97.346 269.709 96.9152 270.528 96.0536C271.346 95.192 271.755 94.0576 271.755 92.6539C271.755 91.2502 271.346 90.1194 270.528 89.2649C269.709 88.4105 268.672 87.9797 267.415 87.9797C266.159 87.9797 265.121 88.4069 264.303 89.2649Z" fill="white"/>
<path d="M276.512 100.049V85.2621H279.944V100.049H276.512Z" fill="white"/>
<path d="M281.969 87.7679C281.613 87.4376 281.434 87.0068 281.434 86.4791C281.434 85.9514 281.617 85.5241 281.98 85.1975C282.342 84.8708 282.809 84.7056 283.38 84.7056C283.951 84.7056 284.417 84.8708 284.787 85.1975C285.153 85.5241 285.336 85.9514 285.336 86.4791C285.336 87.0068 285.157 87.434 284.794 87.7679C284.435 88.0982 283.961 88.2633 283.376 88.2633C282.791 88.2633 282.321 88.0982 281.965 87.7679H281.969Z" fill="white"/>
<path d="M285.099 89.4803H281.667V100.053H285.099V89.4803Z" fill="white"/>
<path d="M285.545 89.4803H289.124L291.522 96.1685L293.909 89.4803H297.435L293.091 100.053H289.878L285.545 89.4803Z" fill="white"/>
<path d="M297.198 94.7756C297.198 93.0883 297.74 91.7492 298.824 90.7656C299.908 89.7819 301.269 89.2901 302.902 89.2901C304.535 89.2901 305.745 89.7639 306.725 90.7153C307.705 91.6631 308.197 92.9088 308.197 94.4525L308.154 95.5941H300.608C300.676 96.3193 300.96 96.8685 301.452 97.2419C301.944 97.6152 302.565 97.8019 303.308 97.8019C304.439 97.8019 305.494 97.4681 306.478 96.7967L307.828 98.5774L307.637 98.7461C307.497 98.8574 307.368 98.9543 307.25 99.0333C307.131 99.1123 306.966 99.22 306.754 99.3564C306.542 99.4928 306.305 99.6077 306.047 99.701C305.788 99.7944 305.501 99.8913 305.189 99.9882C304.877 100.085 304.51 100.161 304.094 100.214C303.677 100.268 303.25 100.293 302.812 100.293C301.139 100.293 299.782 99.8015 298.748 98.8215C297.711 97.8414 297.194 96.4916 297.194 94.7756H297.198ZM300.63 93.6447H304.984C304.97 93.1314 304.772 92.6718 304.392 92.2626C304.011 91.8533 303.487 91.6487 302.816 91.6487C302.145 91.6487 301.638 91.8497 301.251 92.2554C300.863 92.6575 300.655 93.1242 300.63 93.6483V93.6447Z" fill="white"/>
<path d="M309.472 87.7679C309.116 87.4376 308.937 87.0068 308.937 86.4791C308.937 85.9514 309.12 85.5241 309.482 85.1975C309.845 84.8708 310.312 84.7056 310.883 84.7056C311.453 84.7056 311.92 84.8708 312.29 85.1975C312.656 85.5241 312.839 85.9514 312.839 86.4791C312.839 87.0068 312.66 87.434 312.297 87.7679C311.938 88.0982 311.464 88.2633 310.879 88.2633C310.294 88.2633 309.823 88.0982 309.468 87.7679H309.472Z" fill="white"/>
<path d="M312.599 89.4803H309.167V100.053H312.599V89.4803Z" fill="white"/>
<path d="M314.272 100.049V89.4767H317.704L317.682 90.9845H317.725C318.31 89.8537 319.183 89.2901 320.342 89.2901L321.419 89.4803L321.222 92.6288H321.075C320.762 92.4528 320.346 92.3703 319.829 92.3775C319.158 92.3775 318.63 92.6359 318.239 93.1529C317.883 93.6268 317.704 94.3591 317.704 95.35V100.049H314.272Z" fill="white"/>
<path d="M321.182 96.829C321.182 96.111 321.398 95.5115 321.825 95.0268C322.252 94.5458 322.762 94.2083 323.347 94.0145C323.932 93.8206 324.582 93.7093 325.293 93.6842L327.953 93.5801V93.3396C327.953 92.2087 327.231 91.6451 325.785 91.6451C325.185 91.6451 324.582 91.7456 323.975 91.9502C323.369 92.1513 322.895 92.3667 322.55 92.5892L321.649 90.3599C323.078 89.649 324.586 89.2936 326.169 89.2936C327.921 89.2936 329.242 89.7029 330.132 90.5178C330.979 91.3184 331.403 92.5139 331.403 94.097V100.053H328.097L328.036 98.8466C327.791 99.1087 327.583 99.3133 327.411 99.4641C327.239 99.6148 326.93 99.7908 326.481 99.9918C326.032 100.193 325.544 100.293 325.02 100.293C323.975 100.293 323.071 99.999 322.313 99.4138C321.556 98.8251 321.179 97.967 321.179 96.8326L321.182 96.829ZM324.614 96.7106C324.614 97.0839 324.765 97.3783 325.063 97.6009C325.361 97.8234 325.745 97.9347 326.215 97.9347C326.628 97.9347 326.987 97.8378 327.3 97.6404C327.612 97.4429 327.835 97.2383 327.975 97.0229V95.4002L326.28 95.5043C325.171 95.5438 324.614 95.9459 324.614 96.707V96.7106Z" fill="white"/>
<path d="M214.743 96.829C214.743 96.111 214.958 95.5115 215.385 95.0268C215.816 94.5458 216.322 94.2083 216.908 94.0144C217.493 93.8206 218.143 93.7093 218.853 93.6842L221.514 93.5801V93.3395C221.514 92.2087 220.792 91.6451 219.345 91.6451C218.746 91.6451 218.143 91.7456 217.536 91.9502C216.929 92.1512 216.455 92.3666 216.114 92.5892L215.213 90.3598C216.642 89.649 218.15 89.2936 219.733 89.2936C221.485 89.2936 222.806 89.7029 223.696 90.5178C224.543 91.3184 224.967 92.5138 224.967 94.097V100.053H221.661L221.6 98.8466C221.356 99.1086 221.147 99.3133 220.975 99.464C220.803 99.6148 220.494 99.7907 220.045 99.9918C219.596 100.193 219.108 100.293 218.584 100.293C217.539 100.293 216.635 99.9989 215.877 99.4138C215.12 98.825 214.743 97.967 214.743 96.8326V96.829ZM218.175 96.7105C218.175 97.0839 218.326 97.3783 218.624 97.6008C218.925 97.8234 219.306 97.9347 219.776 97.9347C220.189 97.9347 220.548 97.8378 220.86 97.6403C221.169 97.4429 221.395 97.2382 221.535 97.0228V95.4002L219.841 95.5043C218.731 95.5438 218.175 95.9459 218.175 96.7069V96.7105Z" fill="white"/>
<path d="M225.509 92.0938V89.4983H226.87V88.9274C226.87 87.6243 227.15 86.6837 227.713 86.1021C228.396 85.3805 229.379 85.018 230.668 85.0108C231.067 85.0108 231.458 85.0323 231.846 85.079C232.233 85.1221 232.528 85.1651 232.729 85.201L233.002 85.2657L232.833 87.6925C232.395 87.5668 231.971 87.5058 231.566 87.5058C230.722 87.5058 230.298 87.951 230.298 88.8413V89.5054H232.581V92.101H230.298V100.056H226.866V92.101H225.506L225.509 92.0938Z" fill="white"/>
<path d="M232.711 96.829C232.711 96.111 232.926 95.5115 233.353 95.0268C233.784 94.5458 234.29 94.2083 234.876 94.0144C235.461 93.8206 236.111 93.7093 236.821 93.6842L239.482 93.5801V93.3395C239.482 92.2087 238.76 91.6451 237.317 91.6451C236.717 91.6451 236.114 91.7456 235.507 91.9502C234.901 92.1512 234.427 92.3666 234.082 92.5892L233.181 90.3598C234.61 89.649 236.118 89.2936 237.701 89.2936C239.453 89.2936 240.774 89.7029 241.664 90.5178C242.511 91.3184 242.935 92.5138 242.935 94.097V100.053H239.629L239.568 98.8466C239.324 99.1086 239.115 99.3133 238.947 99.464C238.774 99.6148 238.466 99.7907 238.017 99.9918C237.568 100.193 237.08 100.293 236.556 100.293C235.511 100.293 234.606 99.9989 233.849 99.4138C233.091 98.825 232.714 97.967 232.714 96.8326L232.711 96.829ZM236.143 96.7105C236.143 97.0839 236.294 97.3783 236.592 97.6008C236.89 97.8234 237.274 97.9347 237.744 97.9347C238.157 97.9347 238.516 97.8378 238.828 97.6403C239.14 97.4429 239.363 97.2382 239.503 97.0228V95.4002L237.809 95.5043C236.699 95.5438 236.146 95.9459 236.146 96.7069L236.143 96.7105Z" fill="white"/>
<path d="M243.395 94.7755C243.395 93.0882 243.937 91.7492 245.021 90.7655C246.105 89.7819 247.466 89.29 249.099 89.29C250.732 89.29 251.942 89.7639 252.922 90.7153C253.902 91.663 254.394 92.9087 254.394 94.4524L254.351 95.5941H246.805C246.873 96.3192 247.157 96.8685 247.649 97.2419C248.141 97.6152 248.758 97.8019 249.505 97.8019C250.636 97.8019 251.691 97.468 252.675 96.7967L254.025 98.5773L253.834 98.7461C253.694 98.8574 253.565 98.9543 253.447 99.0333C253.328 99.1122 253.163 99.2199 252.948 99.3564C252.736 99.4928 252.499 99.6077 252.24 99.701C251.982 99.7943 251.695 99.8913 251.382 99.9882C251.07 100.085 250.704 100.161 250.287 100.214C249.871 100.268 249.444 100.293 249.006 100.293C247.333 100.293 245.976 99.8015 244.942 98.8215C243.904 97.8414 243.387 96.4916 243.387 94.7755H243.395ZM246.827 93.6447H251.181C251.167 93.1313 250.969 92.6718 250.589 92.2625C250.208 91.8533 249.684 91.6487 249.013 91.6487C248.342 91.6487 247.835 91.8497 247.448 92.2554C247.06 92.6574 246.852 93.1241 246.823 93.6483L246.827 93.6447Z" fill="white"/>
<path d="M255.051 100.049V85.262H258.483V100.049H255.051Z" fill="white"/>
<defs>
<clipPath id="clip0_2_200">
<rect width="102" height="102" fill="white"/>
</clipPath>
</defs>
</svg>
